# xmcd
#
# Track frame offsets: 
#        150
#        15442
#        26890
#        41962
#        53517
#        63342
#        75037
#        84517
#        96654
#        108392
#        122107
#        135842
#        149677
#        162985
#        175515
#        188509
#        202445
#        215985
#        228377
#        242427
#        254790
#        263797
#        276122
#        285850
#        296845
#
# Disc length: 4125 seconds
#
# Revision: 6
# Processed by: cddbd v1.5.2PL0 Copyright (c) Steve Scherf et al.
# Submitted via: ExactAudioCopy v1.3
#
DISCID=70101b19
DTITLE=José Alfredo Jiménez - Las 100 clásicas vol. 2 Cd-2
DYEAR=2001
DGENRE=Ranchera
TTITLE0=Yo
TTITLE1=Alma de acero
TTITLE2=Tu recuerdo y yo
TTITLE3=Serenata huasteca
TTITLE4=Pídele a Dios
TTITLE5=Qué suerte la mía!
TTITLE6=Palabra de hombre
TTITLE7=Te solté la rienda
TTITLE8=Sin sangre en las venas
TTITLE9=Con la muerte en los puños
TTITLE10=Oí tu voz
TTITLE11=Corazón, corazón
TTITLE12=Camino viejo
TTITLE13=Cuando los años pasen
TTITLE14=15 de septiembre
TTITLE15=Me equivoqué contigo
TTITLE16=Tierra sin nombre
TTITLE17=Muñequita negra
TTITLE18=La mitad de mi orgullo
TTITLE19=El vencido
TTITLE20=Palabras del cielo
TTITLE21=Tú y las nubes
TTITLE22=Yo no sé matar
TTITLE23=Vámonos
TTITLE24=Gracias
EXTD=YEAR: 2001
EXTT0=
EXTT1=
EXTT2=
EXTT3=
EXTT4=
EXTT5=
EXTT6=
EXTT7=
EXTT8=
EXTT9=
EXTT10=
EXTT11=
EXTT12=
EXTT13=
EXTT14=
EXTT15=
EXTT16=
EXTT17=
EXTT18=
EXTT19=
EXTT20=
EXTT21=
EXTT22=
EXTT23=
EXTT24=
PLAYORDER=
